<svg xmlns="http://www.w3.org/2000/svg" width="32" height="32" id="email">
  <path d="M23.076 6.498c-1.531 0-2.882.79-3.676 1.98h-1.105L15.783 6.6a.5.5 0 0 0-.6 0l-2.505 1.879H8v3.505l-1.695 1.272a.5.5 0 0 0-.291.637.5.5 0 0 0-.014.113v10.873a.5.5 0 0 0 .598.619h17.787a.5.5 0 0 0 .615-.574v-10.02a4.429 4.429 0 0 0 2.496-3.972c0-2.442-1.983-4.434-4.42-4.434zm0 1a3.42 3.42 0 0 1 3.42 3.434 3.42 3.42 0 1 1-6.842 0 3.42 3.42 0 0 1 3.422-3.434zm-7.59.127 1.141.854h-2.28l1.14-.854zm-2.593 1.854h5.193a.5.5 0 0 0 .045.001h.789c-.11.316-.179.648-.22.989H12v1.062h6.701c.046.338.136.66.254.969H11v1.063h8.535a4.456 4.456 0 0 0 1.885 1.472l-5.938 3.707L9 14.703V9.48h3.842l.05-.001zm8.425.953a.5.5 0 1 0 0 1h3.516a.5.5 0 1 0 0-1h-3.516zM8 13.236v.842l-.613-.383.613-.459zm5 1.264v1.063h5V14.5h-5zm-6 .133 1 .623v.002l.236.146 2.955 1.842 2.729 1.701 1.213.756.086.053.002.002.011.008.02.011h.004a.5.5 0 0 0 .299.05l.002.001a.478.478 0 0 0 .142-.043l.014-.008h.002l.002-.002a.508.508 0 0 0 .031-.017l.088-.055h.002l6.928-4.328a.497.497 0 0 0 .043-.03l.011-.007c.087.005.168.027.256.027.317 0 .626-.037.924-.101v8.81l-5.217-3.488a.5.5 0 0 0-.283-.088c-.5-.002-.693.649-.273.92l4.613 3.08H8.154l4.616-3.078c.425-.275.22-.936-.288-.92v-.002a.5.5 0 0 0-.267.09L7 24.066v-9.433z" style="line-height:normal;text-indent:0;text-align:start;text-decoration-line:none;text-decoration-style:solid;text-decoration-color:#000;text-transform:none;block-progression:tb;white-space:normal;isolation:auto;mix-blend-mode:normal;solid-color:#000;solid-opacity:1" color="#000" font-style="normal" font-variant="normal" font-weight="400" font-stretch="normal" font-size="medium" font-family="sans-serif" text-decoration="none" letter-spacing="normal" word-spacing="normal" direction="ltr" writing-mode="lr-tb" baseline-shift="baseline" text-anchor="start" clip-rule="nonzero" display="inline" overflow="visible" visibility="visible" opacity="1" color-interpolation="sRGB" color-interpolation-filters="linearRGB" fill="#000" fill-opacity="1" fill-rule="nonzero" stroke="none" stroke-width=".99999994" stroke-linecap="round" stroke-linejoin="round" stroke-miterlimit="4" stroke-dasharray="none" stroke-dashoffset="1.29999995" stroke-opacity="1" color-rendering="auto" image-rendering="auto" shape-rendering="auto" text-rendering="auto" enable-background="accumulate"></path>
</svg>
