<svg xmlns="http://www.w3.org/2000/svg" xmlns:xlink="http://www.w3.org/1999/xlink" viewBox="0,0,256,256" width="48px" height="48px" fill-rule="nonzero"><g fill="none" fill-rule="nonzero" stroke="#000000" stroke-width="10.66667" stroke-linecap="butt" stroke-linejoin="miter" stroke-miterlimit="10" stroke-dasharray="" stroke-dashoffset="0" font-family="none" font-weight="none" font-size="none" text-anchor="none" style="mix-blend-mode: normal"><path d="M67.40828,249.18343c-33.46388,0 -60.59172,-27.12784 -60.59172,-60.59172v-121.18343c0,-33.46388 27.12784,-60.59172 60.59172,-60.59172h121.18343c33.46388,0 60.59172,27.12784 60.59172,60.59172v121.18343c0,33.46388 -27.12784,60.59172 -60.59172,60.59172z" id="shape"></path></g><g fill="#000000" fill-rule="nonzero" stroke="none" stroke-width="1" stroke-linecap="butt" stroke-linejoin="miter" stroke-miterlimit="10" stroke-dasharray="" stroke-dashoffset="0" font-family="none" font-weight="none" font-size="none" text-anchor="none" style="mix-blend-mode: normal"><g transform="scale(10.66667,10.66667)"><path d="M19.06445,4.00977c-0.49323,0.01005 -0.99311,0.15502 -1.44922,0.45898l-0.13672,0.08398c-0.04217,0.02448 -0.08528,0.0435 -0.12695,0.07031l-0.43555,0.2793l-4.91602,3.05469l-4.55469,-2.82031l-0.79687,-0.51367c-0.0865,-0.05594 -0.17504,-0.0987 -0.26367,-0.14453c-0.0057,-0.0038 -0.01187,-0.00602 -0.01758,-0.00977c-1.82265,-1.19668 -4.33203,0.15225 -4.33203,2.33789v0.01367c-0.01233,0.11235 -0.03516,0.22077 -0.03516,0.33789v10.8418c0,1.657 1.343,3 3,3h2c0.552,0 1,-0.448 1,-1v-7.43555l3.59375,2.31055c0.24654,0.15915 0.56324,0.15991 0.81055,0.00195l3.5957,-2.29297v7.41602c0,0.552 0.448,1 1,1h2c1.657,0 3,-1.343 3,-3v-10.8418c0,-0.11712 -0.02283,-0.22554 -0.03516,-0.33789v-0.02344c0,-1.64463 -1.42069,-2.81726 -2.90039,-2.78711zM5.02344,5.63672c0.24014,0 0.46924,0.0736 0.6875,0.18945l0.78906,0.48828v3.5l-2.96484,-1.90625v-1.08594c0.16142,-0.74093 0.84691,-1.18555 1.48828,-1.18555zM18.97656,5.63672c0.64138,0 1.32705,0.44461 1.48828,1.18555v1.13281l-2.96484,1.89063v-3.53516l0.25391,-0.16406l0.46484,-0.28906c0.23906,-0.14141 0.49236,-0.2207 0.75781,-0.2207zM16,7.23633v3.56641l-3.99805,2.55078l-4.00195,-2.57422v-3.53711l3.60547,2.23438c0.24224,0.15033 0.54877,0.15033 0.79101,0zM3.5,9.66992l3,1.92969v7.90039h-1.5c-0.827,0 -1.5,-0.673 -1.5,-1.5zM20.5,9.71289v8.28711c0,0.827 -0.673,1.5 -1.5,1.5h-1.5v-7.87305z"></path></g></g></svg>